<svg height="512" viewBox="0 0 512 512" width="512" xmlns="http://www.w3.org/2000/svg"><g id="Outline"><path d="m337.386 380.438 22.914-22.911a107.949 107.949 0 0 0 28.4-50.176l9.19-36.759a91.963 91.963 0 0 1 24.21-42.744l31.324-31.326 11.312 11.312 11.315-11.314-9.725-9.726 19.5-11.7a8 8 0 0 0 1.541-12.518l-33.941-33.941a8 8 0 0 0 -12.518 1.541l-11.7 19.5-9.726-9.725-11.314 11.315 11.312 11.312-31.33 31.327a91.969 91.969 0 0 1 -42.741 24.2l-36.757 9.195a107.954 107.954 0 0 0 -50.179 28.4l-131.457 131.461c-12.919 4.79-25.682 10.044-38.282 15.233-17.9 7.372-34.808 14.335-51.169 19.56l4.87 15.242c16.98-5.425 34.181-12.508 52.392-20.008 32.408-13.346 65.919-27.147 99.385-31.661a163.464 163.464 0 0 1 21.788-1.527c18.805 0 39.728 1.4 63.965 4.284 26.815 3.19 53.394 7.657 79.1 11.978 16.876 2.837 32.818 5.516 47.805 7.658l2.264-15.84c-14.793-2.113-30.64-4.777-47.417-7.6q-12.041-2.022-24.331-4.042zm111.968-233.238 19.45 19.45-14.143 8.486-13.793-13.793zm-7.246 38.012-11.308 11.308-11.32-11.32 11.312-11.312zm-172.321 81.81a91.953 91.953 0 0 1 42.743-24.2l36.761-9.189a107.981 107.981 0 0 0 50.176-28.414l8.7-8.7 11.317 11.316-8.7 8.7a107.975 107.975 0 0 0 -28.417 50.179l-9.19 36.763a91.948 91.948 0 0 1 -24.2 42.74l-31.133 31.134q-9.833-1.5-19.768-2.863l36.546-36.546a8 8 0 0 0 0-11.314l-11.313-11.312 16.971-16.963a8 8 0 0 0 0-11.315l-16.97-16.972a23.995 23.995 0 0 0 -33.939 0l-100.029 100.018a247.2 247.2 0 0 0 -28.754 6.132zm30.892 14.368a7.994 7.994 0 0 1 11.324-.01l11.312 11.312-11.315 11.308-11.313-11.314a7.986 7.986 0 0 1 -.009-11.3zm-86.66 86.65 70.662-70.655a24.057 24.057 0 0 0 4.692 6.615l28.283 28.283-39.667 39.667a547.714 547.714 0 0 0 -61.989-3.95c-.653 0-1.323.028-1.981.036z"/><path d="m400 320h96v16h-96z"/><path d="m16 320h144v16h-144z"/><path d="m92.645 300.8a150.907 150.907 0 0 1 -12.645-60.8c0-83.813 68.187-152 152-152a152.07 152.07 0 0 1 139.355 91.2l14.663-6.406a168.07 168.07 0 0 0 -154.018-100.794c-92.636 0-168 75.364-168 168a166.828 166.828 0 0 0 13.982 67.2z"/><path d="m32 368h16v16h-16z"/><path d="m100.913 351.787h16v16h-16z"/><path d="m160 424h16v16h-16z"/><path d="m240 464h16v16h-16z"/><path d="m264 408h16v16h-16z"/><path d="m375.908 448h16v16h-16z"/><path d="m64 456h16v16h-16z"/><path d="m416 360h16v16h-16z"/><path d="m456 424h16v16h-16z"/></g></svg>